<svg xmlns="http://www.w3.org/2000/svg" width={24} height={24} viewBox="0 0 24 24" fill="none">
                <g clipPath="url(#clip0_2569_3142)">
                    <g clipPath="url(#clip1_2569_3143)">
                        <path d="M23.7586 13.2116V17.1713C23.7586 17.2169 23.7577 17.2626 23.755 17.3082C23.7541 17.3172 23.7541 17.327 23.7532 17.3359C23.7515 17.3628 23.7497 17.3896 23.747 17.4174C23.7443 17.4442 23.7416 17.4711 23.738 17.4979C23.7353 17.5239 23.7309 17.5498 23.7273 17.5749C23.721 17.6134 23.7148 17.6509 23.7067 17.6894C23.7022 17.7136 23.6969 17.7368 23.6915 17.761C23.6861 17.7816 23.6808 17.8031 23.6754 17.8245C23.6709 17.8442 23.6656 17.863 23.6593 17.8827C23.6351 17.9695 23.6056 18.0554 23.5716 18.1395C23.5644 18.1574 23.5573 18.1762 23.5492 18.1941C23.5286 18.2433 23.5063 18.2917 23.4821 18.3391C23.4705 18.3632 23.4579 18.3865 23.4454 18.4098L23.4445 18.4089L18.9649 15.9158L11.9492 12.0107L17.2253 9.58203L23.6638 13.1597L23.7586 13.2116Z" fill="url(#paint0_linear_2569_3141)" />
                        <path d="M23.6783 5.82134L22.3127 6.87369L21.1038 8.77436L9.60938 2.37615L13.9772 -0.691406L16.617 0.833426H16.6179L21.4555 3.62627L22.4568 4.20434C23.0734 4.56049 23.5083 5.14752 23.6783 5.82134Z" fill="url(#paint1_linear_2569_3141)" />
                        <path d="M16.6183 0.834005L0 10.3544V6.45817C0 5.52841 0.495749 4.66935 1.30022 4.20492L10.579 -1.15168C11.3834 -1.61611 12.3749 -1.61611 13.1803 -1.15168L16.6183 0.834005Z" fill="#21E786" />
                        <path d="M23.7584 6.45827V7.8104L2.29172 19.9974L1.30022 19.4247C0.495749 18.9594 0 18.1012 0 17.1715V15.822L21.4568 3.62695L22.4582 4.20503C23.2626 4.66946 23.7584 5.52852 23.7584 6.45827Z" fill="#21E786" />
                        <path d="M23.7602 13.1035V17.1706C23.7602 17.2163 23.7593 17.2619 23.7566 17.3075C23.7557 17.3165 23.7557 17.3263 23.7548 17.3353C23.753 17.3621 23.7513 17.389 23.7486 17.4167C23.7459 17.4436 23.7432 17.4704 23.7396 17.4973C23.7369 17.5232 23.7325 17.5492 23.7289 17.5742C23.7226 17.6127 23.7164 17.6503 23.7083 17.6888C23.7038 17.7129 23.6985 17.7362 23.6931 17.7603C23.6877 17.7809 23.6824 17.8024 23.677 17.8239C23.6725 17.8436 23.6671 17.8624 23.6609 17.882C23.6367 17.9688 23.6072 18.0547 23.5732 18.1389C23.566 18.1568 23.5589 18.1756 23.5508 18.1934C23.5302 18.2427 23.5079 18.291 23.4837 18.3384C23.4721 18.3626 23.4595 18.3858 23.447 18.4091C23.4327 18.4351 23.4184 18.461 23.4032 18.4861C23.3888 18.512 23.3727 18.5371 23.3575 18.5621C23.3253 18.6113 23.2922 18.6606 23.2573 18.708C23.2215 18.7563 23.1848 18.8028 23.1472 18.8476C23.1275 18.8709 23.1079 18.8932 23.0882 18.9147C23.0685 18.9371 23.0479 18.9585 23.0273 18.98C22.9862 19.023 22.9432 19.065 22.8985 19.1044C22.8815 19.1205 22.8636 19.1357 22.8457 19.1509C22.8349 19.1599 22.8242 19.1688 22.8135 19.1778C22.792 19.1966 22.7696 19.2145 22.7463 19.2315C22.724 19.2494 22.7016 19.2664 22.6774 19.2825C22.6327 19.3156 22.5862 19.3469 22.5387 19.3764C22.5128 19.3926 22.4868 19.4087 22.46 19.4239L13.1821 24.7805C12.3768 25.2449 11.3853 25.2449 10.5808 24.7805L7.1875 22.8216L18.9665 15.9151L23.6654 13.159L23.7602 13.1035Z" fill="#21E786" />
                        <path d="M4.66577 2.26172V21.3669L2.29172 19.9968L1.30022 19.4241C0.495749 18.9588 0 18.1006 0 17.1709V6.45769C0 5.52794 0.495749 4.66888 1.30022 4.20445L4.66577 2.26172Z" fill="#21E786" />
                    </g>
                </g>
                <defs>
                    <linearGradient id="paint0_linear_2569_3141" x1="23.0427" y1="16.1288" x2="13.5125" y2="9.59634" gradientUnits="userSpaceOnUse">
                        <stop offset={1} stopColor="#00FFA3" />
                        <stop offset={1} stopColor="#00FFA3" stopOpacity={0} />
                    </linearGradient>
                    <linearGradient id="paint1_linear_2569_3141" x1="21.4752" y1="7.09024" x2="12.8398" y2="1.4974" gradientUnits="userSpaceOnUse">
                        <stop offset={1} stopColor="#00FFA3" />
                        <stop offset={1} stopColor="#00FFA3" stopOpacity={0} />
                    </linearGradient>
                    <clipPath id="clip0_2569_3143">
                        <rect width={24} height={24} fill="white" />
                    </clipPath>
                    <clipPath id="clip1_2569_3144">
                        <rect width={24} height="26.6667" fill="white" transform="translate(0 -1.5)" />
                    </clipPath>
                </defs>
            </svg>